# xmcd
#
# Track frame offsets:
# 150
# 19010
# 34226
# 48799
# 61555
# 74403
# 94574
# 117591
# 137636
# 154085
#
# Disc length: 2356 seconds
#
#
# Revision: 0
# Processed by: cddbd v1.5.2PL0 Copyright (c) Steve Scherf et al.
# Submitted via: FreeRIP 2.951 
#
DISCID=7c09320a
DTITLE=Norman, Andy - Kandu Band Reunion
DYEAR=1900
DGENRE=Country
TTITLE0=Oh Lonesome Me (vocals: Andy Norman)
TTITLE1=That´s The Way Love Goes (vocals: Andy Norman)
TTITLE2=Third Rate Romance (vocals: Jim Geiger)
TTITLE3=The Fireman (vocals: Andy Norman)
TTITLE4=Pop A Top (vocals: Andy Norman)
TTITLE5=Crossroads (vocals: Jim Geiger)
TTITLE6=Bluesman (vocals: Andy Norman)
TTITLE7=Giving It Up For Your Love (vocal: Andy Norman)
TTITLE8=Lovin´ Arms (vocal: Andy Norman)
TTITLE9=Sweet Home Alabama (vocal: Jim Geiger)
EXTD=Live On Stage\nWillie Nelson Show Opening\nSept. 14, 2000
EXTT0=
EXTT1=
EXTT2=
EXTT3=
EXTT4=
EXTT5=
EXTT6=
EXTT7=
EXTT8=
EXTT9=
PLAYORDER=
